<svg version="1.1" xmlns="http://www.w3.org/2000/svg" viewBox="0 0 1050.456433820123 610.9744786528863"
    width="2100.912867640246" height="1221.9489573057726">
    <!-- svg-source:excalidraw -->

    <defs>
        <style class="style-fonts">
            @font-face {
                font-family: "Virgil";
                src: url("https://excalidraw.com/Virgil.woff2");
            }

            @font-face {
                font-family: "Cascadia";
                src: url("https://excalidraw.com/Cascadia.woff2");
            }
        </style>
    </defs>
    <rect x="0" y="0" width="1050.456433820123" height="610.9744786528863" fill="#ffffff"></rect>
    <g stroke-linecap="round" transform="translate(403.3329443840971 76.11364240405027) rotate(0 86.5 20.5)">
        <path
            d="M10.25 0 M10.25 0 C52.82 -0.41, 98.65 2.24, 162.75 0 M10.25 0 C42.18 -0.61, 72.74 0.04, 162.75 0 M162.75 0 C168.18 0.35, 174.43 1.73, 173 10.25 M162.75 0 C169.77 -1.87, 174.29 4.48, 173 10.25 M173 10.25 C172.95 19.25, 171.13 27.3, 173 30.75 M173 10.25 C172.84 16.76, 172.19 25.42, 173 30.75 M173 30.75 C173.31 37.65, 170.81 42.57, 162.75 41 M173 30.75 C171.52 37.72, 168.81 38.94, 162.75 41 M162.75 41 C105.54 38.73, 50.78 38.77, 10.25 41 M162.75 41 C130.14 42.77, 100.09 43.07, 10.25 41 M10.25 41 C2.71 40.88, 0.14 38.32, 0 30.75 M10.25 41 C2.72 42.37, -1.4 39.81, 0 30.75 M0 30.75 C0.17 27.86, -0.5 19.84, 0 10.25 M0 30.75 C-0.83 25.69, 0.03 22.12, 0 10.25 M0 10.25 C0.36 2.64, 2.72 0.53, 10.25 0 M0 10.25 C2.26 1.46, 1.3 1.69, 10.25 0"
            stroke="#000000" stroke-width="1" fill="none"></path>
    </g>
    <g transform="translate(421.7929968743315 84.61364240405027) rotate(0 68.03994750976562 12)"><text
            x="68.03994750976562" y="0" font-family="Virgil, Segoe UI Emoji" font-size="20px" fill="#000000"
            text-anchor="middle" style="white-space: pre;" direction="ltr" dominant-baseline="text-before-edge">IO
            (handle io)</text></g>
    <g stroke-linecap="round">
        <g transform="translate(252.0992657601148 117.15010272391572) rotate(0 71.96722351828208 -13.901474964696803)">
            <path
                d="M-0.9 -0.81 C23.25 -5.7, 120.71 -24.67, 144.83 -29.18 M0.83 1.38 C24.91 -3.36, 120.72 -22.7, 144.43 -27.9"
                stroke="#e67700" stroke-width="1" fill="none"></path>
        </g>
        <g transform="translate(252.0992657601148 117.15010272391572) rotate(0 71.96722351828208 -13.901474964696803)">
            <path
                d="M117.58 -10.36 C125.68 -16.54, 135.41 -22.24, 143.92 -28.1 M119.68 -11.8 C127.4 -18.05, 137.48 -24.62, 144.86 -27.95"
                stroke="#e67700" stroke-width="1" fill="none"></path>
        </g>
        <g transform="translate(252.0992657601148 117.15010272391572) rotate(0 71.96722351828208 -13.901474964696803)">
            <path
                d="M113.38 -30.45 C122.75 -30.64, 133.73 -30.38, 143.92 -28.1 M115.48 -31.89 C124.9 -30.74, 136.52 -29.89, 144.86 -27.95"
                stroke="#e67700" stroke-width="1" fill="none"></path>
        </g>
    </g>
    <mask></mask>
    <g transform="translate(280.0378835716017 81.29551916352301) rotate(0 27.78997802734375 12)"><text x="0" y="0"
            font-family="Virgil, Segoe UI Emoji" font-size="20px" fill="#000000" text-anchor="start"
            style="white-space: pre;" direction="ltr" dominant-baseline="text-before-edge">spawn</text></g>
    <g stroke-linecap="round" transform="translate(142.23542397500376 95.40670177927035) rotate(0 53.5 20.5)">
        <path
            d="M10.25 0 M10.25 0 C37.18 -0.98, 61.95 1.02, 96.75 0 M10.25 0 C38.16 0.41, 64.25 -0.47, 96.75 0 M96.75 0 C104.98 -1.55, 107.86 1.86, 107 10.25 M96.75 0 C104.37 0.38, 108.49 5.48, 107 10.25 M107 10.25 C106.65 19.81, 105.11 27.69, 107 30.75 M107 10.25 C107.57 16.43, 106.21 21.69, 107 30.75 M107 30.75 C105.96 37.46, 103.69 41.41, 96.75 41 M107 30.75 C106.99 38.12, 102.83 40.51, 96.75 41 M96.75 41 C72.44 40.87, 47.32 43.02, 10.25 41 M96.75 41 C63.38 41.04, 29.42 39.96, 10.25 41 M10.25 41 C5.33 42.99, 0.62 38.32, 0 30.75 M10.25 41 C1.25 40.62, 1.73 36.55, 0 30.75 M0 30.75 C0.41 24.78, -0.33 21.06, 0 10.25 M0 30.75 C0.92 22.63, 0.01 16.54, 0 10.25 M0 10.25 C1.79 2.14, 3.32 -1.71, 10.25 0 M0 10.25 C-0.89 3.46, 4.91 -2.28, 10.25 0"
            stroke="#000000" stroke-width="1" fill="none"></path>
    </g>
    <g transform="translate(160.9754523563514 103.90670177927035) rotate(0 34.759971618652344 12)"><text
            x="34.759971618652344" y="0" font-family="Virgil, Segoe UI Emoji" font-size="20px" fill="#000000"
            text-anchor="middle" style="white-space: pre;" direction="ltr"
            dominant-baseline="text-before-edge">main/lib</text></g>
    <g stroke-linecap="round"
        transform="translate(276.75909045342144 279.0126267392615) rotate(0 60.13740269231846 41)">
        <path
            d="M20.5 0 M20.5 0 C38.9 1.18, 56.13 -2.45, 99.77 0 M20.5 0 C42.09 0.25, 64.47 -0.87, 99.77 0 M99.77 0 C114.86 1.96, 120.08 5.8, 120.27 20.5 M99.77 0 C114.54 -1.26, 122.54 7.58, 120.27 20.5 M120.27 20.5 C119.69 33.1, 121.82 47.62, 120.27 61.5 M120.27 20.5 C119.31 30.51, 120.95 40.33, 120.27 61.5 M120.27 61.5 C122.1 73.62, 114.38 83.93, 99.77 82 M120.27 61.5 C120.75 74.45, 111.61 80.57, 99.77 82 M99.77 82 C74.67 82.66, 50.95 82.98, 20.5 82 M99.77 82 C71.44 82.21, 43.69 83.1, 20.5 82 M20.5 82 C5.1 80.13, -1.28 75.07, 0 61.5 M20.5 82 C5.76 83.66, 0.67 73.75, 0 61.5 M0 61.5 C0.9 49.31, -0.42 36.7, 0 20.5 M0 61.5 C-0.05 49.3, 0.61 35.1, 0 20.5 M0 20.5 C0.2 7.49, 6.16 -1.3, 20.5 0 M0 20.5 C0.58 6.16, 7.04 -0.24, 20.5 0"
            stroke="#000000" stroke-width="1" fill="none"></path>
    </g>
    <g transform="translate(293.1925289123416 291.21262673926157) rotate(0 43.70396423339844 28.80000000000001)"><text
            x="43.70396423339844" y="0" font-family="Virgil, Segoe UI Emoji" font-size="16px" fill="#000000"
            text-anchor="middle" style="white-space: pre;" direction="ltr"
            dominant-baseline="text-before-edge">App</text><text x="43.70396423339844" y="19.2"
            font-family="Virgil, Segoe UI Emoji" font-size="16px" fill="#000000" text-anchor="middle"
            style="white-space: pre;" direction="ltr" dominant-baseline="text-before-edge">- dispatch </text><text
            x="43.70396423339844" y="38.4" font-family="Virgil, Segoe UI Emoji" font-size="16px" fill="#000000"
            text-anchor="middle" style="white-space: pre;" direction="ltr"
            dominant-baseline="text-before-edge">action</text></g>
    <g stroke-linecap="round">
        <g transform="translate(210.35895621475174 143.1007313873077) rotate(0 40.84677266734889 58.07116775943797)">
            <path
                d="M-0.4 -0.78 C13.26 18.42, 68.38 96.14, 82.1 115.57 M1.59 1.42 C15.11 20.76, 68.04 97.65, 81.31 116.92"
                stroke="#e67700" stroke-width="1" fill="none"></path>
        </g>
        <g transform="translate(210.35895621475174 143.1007313873077) rotate(0 40.84677266734889 58.07116775943797)">
            <path
                d="M55.57 100.03 C63.91 105.18, 71.86 110.71, 80.11 117.83 M56.37 98.71 C66.23 105.81, 75.27 113.12, 81.49 116.58"
                stroke="#e67700" stroke-width="1" fill="none"></path>
        </g>
        <g transform="translate(210.35895621475174 143.1007313873077) rotate(0 40.84677266734889 58.07116775943797)">
            <path
                d="M72.47 88.39 C75.62 97.09, 78.33 106.23, 80.11 117.83 M73.27 87.07 C76.41 98.67, 78.82 110.54, 81.49 116.58"
                stroke="#e67700" stroke-width="1" fill="none"></path>
        </g>
    </g>
    <mask></mask>
    <g stroke-linecap="round"
        transform="translate(135.29403974063507 482.8494773022131) rotate(0 64.90935965836007 24.74815575233066)">
        <path
            d="M12.37 0 M12.37 0 C45.9 1.53, 83.95 -0.81, 117.44 0 M12.37 0 C47.52 -0.02, 82.86 -0.91, 117.44 0 M117.44 0 C124.15 -0.43, 131.73 4.81, 129.82 12.37 M117.44 0 C123.98 1.48, 130.41 5.63, 129.82 12.37 M129.82 12.37 C131.12 18.72, 128.12 28.7, 129.82 37.12 M129.82 12.37 C130.42 19.73, 128.71 25.99, 129.82 37.12 M129.82 37.12 C130.55 43.87, 127.61 47.86, 117.44 49.5 M129.82 37.12 C128.64 46.53, 126.75 48.1, 117.44 49.5 M117.44 49.5 C80.2 46.93, 46.34 48.29, 12.37 49.5 M117.44 49.5 C75.43 49.7, 34.28 50.63, 12.37 49.5 M12.37 49.5 C5.01 50.56, 1.7 44.03, 0 37.12 M12.37 49.5 C6 48.98, -1.76 47.04, 0 37.12 M0 37.12 C-1.1 30.56, 1.32 20.87, 0 12.37 M0 37.12 C0.04 28.42, -0.5 20.07, 0 12.37 M0 12.37 C1.55 6.02, 2.95 -0.8, 12.37 0 M0 12.37 C1.86 6.25, 2.52 -0.2, 12.37 0"
            stroke="#000000" stroke-width="1" fill="none"></path>
    </g>
    <g transform="translate(187.61340306110458 495.5976330545438) rotate(0 12.589996337890625 12)"><text
            x="12.589996337890625" y="0" font-family="Virgil, Segoe UI Emoji" font-size="20px" fill="#000000"
            text-anchor="middle" style="white-space: pre;" direction="ltr"
            dominant-baseline="text-before-edge">UI</text></g>
    <g stroke-linecap="round">
        <g transform="translate(188.75545114880617 146.77623448121568) rotate(0 -2.6473428940248596 163.5894407375214)">
            <path
                d="M-0.49 -0.55 C-1.71 53.8, -5.22 272, -6.27 326.8 M1.46 1.78 C0.06 56.17, -5.29 273.07, -6.76 327.73"
                stroke="#e67700" stroke-width="1" fill="none"></path>
        </g>
        <g transform="translate(188.75545114880617 146.77623448121568) rotate(0 -2.6473428940248596 163.5894407375214)">
            <path
                d="M-17.21 300.75 C-14.33 311.1, -8.2 320.4, -6.15 328.35 M-16.74 299.84 C-12.95 307.43, -11.89 314.92, -6.58 327.12"
                stroke="#e67700" stroke-width="1" fill="none"></path>
        </g>
        <g transform="translate(188.75545114880617 146.77623448121568) rotate(0 -2.6473428940248596 163.5894407375214)">
            <path
                d="M3.31 301.28 C-1.85 311.33, -3.74 320.43, -6.15 328.35 M3.77 300.36 C2.17 307.85, -2.17 315.2, -6.58 327.12"
                stroke="#e67700" stroke-width="1" fill="none"></path>
        </g>
    </g>
    <mask></mask>
    <g stroke-linecap="round"
        transform="translate(10 190.91004944517334) rotate(0 515.2282169100615 180.46265296101842)">
        <path
            d="M32 0 M32 0 C275.51 1.03, 518.48 1.57, 998.46 0 M32 0 C382.72 3.61, 733.04 3.72, 998.46 0 M998.46 0 C1018.88 1.13, 1029.49 10.19, 1030.46 32 M998.46 0 C1018.35 -1.58, 1032.09 10.9, 1030.46 32 M1030.46 32 C1028.84 132.91, 1030.09 229.99, 1030.46 328.93 M1030.46 32 C1030.81 127.59, 1030.78 222.52, 1030.46 328.93 M1030.46 328.93 C1028.82 348.37, 1017.93 361.69, 998.46 360.93 M1030.46 328.93 C1028.23 348, 1021.58 361.62, 998.46 360.93 M998.46 360.93 C770.97 363.11, 542.27 363.06, 32 360.93 M998.46 360.93 C726.88 363.03, 455.07 363.22, 32 360.93 M32 360.93 C9.07 362.31, -1.53 349.75, 0 328.93 M32 360.93 C8.42 361.89, 1 352.5, 0 328.93 M0 328.93 C0.85 247.02, -0.69 163.89, 0 32 M0 328.93 C-2.84 250.19, -2.46 169.64, 0 32 M0 32 C-0.63 8.98, 9.25 -1.46, 32 0 M0 32 C-1.88 12.58, 11.61 1.16, 32 0"
            stroke="#000000" stroke-width="1" fill="none"></path>
    </g>
    <g stroke-linecap="round">
        <g transform="translate(273.7795647983063 371.8539828108654) rotate(0 -22.14791539173359 49.29137206360707)">
            <path
                d="M-0.48 0.33 C-7.85 16.52, -37.46 81.36, -44.63 97.9 M1.47 -0.54 C-6.05 15.74, -38.22 82.72, -45.77 99.12"
                stroke="#000000" stroke-width="1" fill="none"></path>
        </g>
        <g transform="translate(273.7795647983063 371.8539828108654) rotate(0 -22.14791539173359 49.29137206360707)">
            <path
                d="M-42.47 68.65 C-44.58 78.47, -42.46 86.41, -46.91 98.54 M-42.69 68.89 C-44.46 80.3, -45.21 89.53, -44.82 100"
                stroke="#000000" stroke-width="1" fill="none"></path>
        </g>
        <g transform="translate(273.7795647983063 371.8539828108654) rotate(0 -22.14791539173359 49.29137206360707)">
            <path
                d="M-23.91 77.4 C-30.99 84.83, -33.8 90.45, -46.91 98.54 M-24.13 77.64 C-32.26 86.24, -39.3 92.5, -44.82 100"
                stroke="#000000" stroke-width="1" fill="none"></path>
        </g>
    </g>
    <mask></mask>
    <g transform="translate(918.9069601392285 157.74038101889272) rotate(0 26.175979614257812 9.600000000000023)"><text
            x="0" y="0" font-family="Virgil, Segoe UI Emoji" font-size="16px" fill="#000000" text-anchor="start"
            style="white-space: pre;" direction="ltr" dominant-baseline="text-before-edge">thread</text></g>
    <g transform="translate(490.7330434555679 50.17124942657932) rotate(0 26.175979614257812 9.599999999999994)"><text
            x="0" y="0" font-family="Virgil, Segoe UI Emoji" font-size="16px" fill="#000000" text-anchor="start"
            style="white-space: pre;" direction="ltr" dominant-baseline="text-before-edge">thread</text></g>
    <g stroke-linecap="round"
        transform="translate(457.3717914070281 229.2888780279406) rotate(0 71.41084092988655 28.476143155136583)">
        <path
            d="M14.24 0 M14.24 0 C42.29 0.24, 73.68 2.31, 128.58 0 M14.24 0 C44.68 -0.6, 73.96 0.27, 128.58 0 M128.58 0 C136.3 -0.42, 142.53 4.9, 142.82 14.24 M128.58 0 C139.3 -1.93, 141.8 2.86, 142.82 14.24 M142.82 14.24 C144.01 18.63, 144.91 27.06, 142.82 42.71 M142.82 14.24 C143.07 23.16, 142.32 32.04, 142.82 42.71 M142.82 42.71 C143.29 53.38, 140.06 56.57, 128.58 56.95 M142.82 42.71 C145.08 53.9, 138.51 58.32, 128.58 56.95 M128.58 56.95 C96.58 57.53, 61.21 56.94, 14.24 56.95 M128.58 56.95 C94.83 55.02, 60.67 55.14, 14.24 56.95 M14.24 56.95 C3.91 57.76, -0.87 54.18, 0 42.71 M14.24 56.95 C4.3 55.42, 0.8 54.03, 0 42.71 M0 42.71 C0.7 30.84, -0.14 21.68, 0 14.24 M0 42.71 C-1.09 36.1, -0.75 30.3, 0 14.24 M0 14.24 C-1.58 3.92, 3.73 0.76, 14.24 0 M0 14.24 C2.2 5.89, 2.8 -1.29, 14.24 0"
            stroke="#000000" stroke-width="1" fill="none"></path>
    </g>
    <g transform="translate(506.5746397832038 248.16502118307716) rotate(0 22.207992553710938 9.600000000000023)"><text
            x="22.207992553710938" y="0" font-family="Virgil, Segoe UI Emoji" font-size="16px" fill="#000000"
            text-anchor="middle" style="white-space: pre;" direction="ltr"
            dominant-baseline="text-before-edge">Event</text></g>
    <g stroke-linecap="round">
        <g transform="translate(249.650365815687 147.28873394432873) rotate(0 108.1376827079809 40.786139871887485)">
            <path
                d="M-0.31 0.64 C35.3 14.4, 178.29 68.31, 214.28 81.64 M1.73 -0.07 C37.66 13.41, 181 66.17, 216.58 79.79"
                stroke="#e67700" stroke-width="1" fill="none"></path>
        </g>
        <g transform="translate(249.650365815687 147.28873394432873) rotate(0 108.1376827079809 40.786139871887485)">
            <path
                d="M187.65 78.2 C198.09 80.68, 207.03 79.7, 218.06 80.56 M187.52 78.84 C193.03 79.07, 197.73 79.29, 216.83 80.67"
                stroke="#e67700" stroke-width="1" fill="none"></path>
        </g>
        <g transform="translate(249.650365815687 147.28873394432873) rotate(0 108.1376827079809 40.786139871887485)">
            <path
                d="M194.85 58.99 C202.59 68.27, 208.97 74.11, 218.06 80.56 M194.72 59.63 C198.7 63.66, 201.95 67.75, 216.83 80.67"
                stroke="#e67700" stroke-width="1" fill="none"></path>
        </g>
    </g>
    <mask></mask>
    <g stroke-linecap="round">
        <g transform="translate(503.43758169420687 294.7058466296383) rotate(0 -44.77263438247928 20.797696351824243)">
            <path
                d="M0.53 0.09 C-14.21 7.07, -74.6 34.44, -89.62 41.51 M-0.65 -0.91 C-15.37 6.22, -75.21 35.06, -90.08 42.51"
                stroke="#000000" stroke-width="1" fill="none"></path>
        </g>
        <g transform="translate(503.43758169420687 294.7058466296383) rotate(0 -44.77263438247928 20.797696351824243)">
            <path
                d="M-69.14 22.46 C-75.29 27, -77.86 28.84, -90.84 41.58 M-69.17 20.83 C-77.19 28.18, -83.31 34.76, -89.17 42.18"
                stroke="#000000" stroke-width="1" fill="none"></path>
        </g>
        <g transform="translate(503.43758169420687 294.7058466296383) rotate(0 -44.77263438247928 20.797696351824243)">
            <path
                d="M-60.1 40.89 C-68.04 41.72, -72.44 39.82, -90.84 41.58 M-60.14 39.25 C-71 40.5, -80.1 40.99, -89.17 42.18"
                stroke="#000000" stroke-width="1" fill="none"></path>
        </g>
    </g>
    <mask></mask>
    <g stroke-linecap="round">
        <g transform="translate(611.7511283569992 265.1308641333981) rotate(0 46.446878597452155 43.02151115329036)">
            <path d="M0.32 -0.68 C15.87 13.63, 78.46 71, 93.87 85.2 M-0.97 1.58 C14.39 16.15, 77.02 72.75, 93.05 86.72"
                stroke="#e67700" stroke-width="1" fill="none"></path>
        </g>
        <g transform="translate(611.7511283569992 265.1308641333981) rotate(0 46.446878597452155 43.02151115329036)">
            <path
                d="M64.04 76.06 C74.78 78.03, 83.3 81.58, 91.17 87.21 M64.55 75.97 C72.24 78.82, 80.87 80.72, 93.33 87.25"
                stroke="#e67700" stroke-width="1" fill="none"></path>
        </g>
        <g transform="translate(611.7511283569992 265.1308641333981) rotate(0 46.446878597452155 43.02151115329036)">
            <path
                d="M77.69 60.73 C83.59 68.08, 87.35 76.97, 91.17 87.21 M78.19 60.64 C81.99 67.86, 86.84 74, 93.33 87.25"
                stroke="#e67700" stroke-width="1" fill="none"></path>
        </g>
    </g>
    <mask></mask>
    <g transform="translate(639.4073761629655 260.4636600047556) rotate(0 27.78997802734375 12)"><text x="0" y="0"
            font-family="Virgil, Segoe UI Emoji" font-size="20px" fill="#e67700" text-anchor="start"
            style="white-space: pre;" direction="ltr" dominant-baseline="text-before-edge">spawn</text></g>
    <g transform="translate(639.648725404554 383.08238740594317) rotate(0 28.319969177246094 9.600000000000023)"><text
            x="0" y="0" font-family="Virgil, Segoe UI Emoji" font-size="16px" fill="#5c940d" text-anchor="start"
            style="white-space: pre;" direction="ltr" dominant-baseline="text-before-edge">mpsc:tx</text></g>
    <g transform="translate(441.25123483844834 372.78471239076833) rotate(0 27.239967346191406 9.600000000000023)"><text
            x="0" y="0" font-family="Virgil, Segoe UI Emoji" font-size="16px" fill="#5c940d" text-anchor="start"
            style="white-space: pre;" direction="ltr" dominant-baseline="text-before-edge">mpsc:rx</text></g>
    <g stroke-linecap="round"
        transform="translate(701.2288683321991 358.88157736500835) rotate(0 102.33912881718618 50.47311797419667)">
        <path
            d="M25.24 0 M25.24 0 C66.16 1.29, 102.58 2.57, 179.44 0 M25.24 0 C87.15 0.07, 148.15 -0.19, 179.44 0 M179.44 0 C197.07 -1.87, 206.22 7.8, 204.68 25.24 M179.44 0 C195.87 1.27, 206.22 8.8, 204.68 25.24 M204.68 25.24 C202.43 37.73, 203.17 51.54, 204.68 75.71 M204.68 25.24 C205.19 40.78, 204.21 57.78, 204.68 75.71 M204.68 75.71 C204.84 93.27, 197.53 102.16, 179.44 100.95 M204.68 75.71 C204.35 90.89, 195.4 99.16, 179.44 100.95 M179.44 100.95 C132.72 101.28, 83.02 99.16, 25.24 100.95 M179.44 100.95 C121.4 98.97, 64.17 100.57, 25.24 100.95 M25.24 100.95 C8.32 101.58, -0.55 92.47, 0 75.71 M25.24 100.95 C8.1 103.04, 0.11 91.91, 0 75.71 M0 75.71 C-0.87 59.44, -1.91 43.19, 0 25.24 M0 75.71 C-0.26 58.13, 0.14 40.65, 0 25.24 M0 25.24 C-0.01 9.16, 9.67 0.15, 25.24 0 M0 25.24 C-1.41 7.76, 7.93 0.27, 25.24 0"
            stroke="#000000" stroke-width="1" fill="none"></path>
    </g>
    <g transform="translate(720.5120507992875 390.15469533920503) rotate(0 83.05594635009766 19.19999999999999)"><text
            x="83.05594635009766" y="0" font-family="Virgil, Segoe UI Emoji" font-size="16px" fill="#000000"
            text-anchor="middle" style="white-space: pre;" direction="ltr"
            dominant-baseline="text-before-edge">Loop/Poll - wait for </text><text x="83.05594635009766" y="19.2"
            font-family="Virgil, Segoe UI Emoji" font-size="16px" fill="#000000" text-anchor="middle"
            style="white-space: pre;" direction="ltr" dominant-baseline="text-before-edge">input event</text></g>
    <g stroke-linecap="round">
        <g transform="translate(690.7716726237744 420.1244603419304) rotate(0 -142.28997240890885 -30.45720827348265)">
            <path d="M0 0 C-47.43 -10.15, -237.15 -50.76, -284.58 -60.91" stroke="#5c940d" stroke-width="1.5"
                fill="none" stroke-dasharray="8 9"></path>
        </g>
        <g transform="translate(690.7716726237744 420.1244603419304) rotate(0 -142.28997240890885 -30.45720827348265)">
            <path d="M-254.87 -65.05 C-266.23 -63.47, -277.59 -61.89, -284.58 -60.91" stroke="#5c940d"
                stroke-width="1.5" fill="none"></path>
        </g>
        <g transform="translate(690.7716726237744 420.1244603419304) rotate(0 -142.28997240890885 -30.45720827348265)">
            <path d="M-259.16 -44.98 C-268.88 -51.07, -278.6 -57.17, -284.58 -60.91" stroke="#5c940d" stroke-width="1.5"
                fill="none"></path>
        </g>
    </g>
    <mask></mask>
    <g stroke-linecap="round"
        transform="translate(307.24382825834675 378.7222758834013) rotate(0 61.75999397482332 24.19999999999999)">
        <path
            d="M12.1 0 M12.1 0 C32.48 0, 52.86 0, 111.42 0 M111.42 0 C119.49 0, 123.52 4.03, 123.52 12.1 M123.52 12.1 C123.52 17.01, 123.52 21.92, 123.52 36.3 M123.52 36.3 C123.52 44.37, 119.49 48.4, 111.42 48.4 M111.42 48.4 C91.2 48.4, 70.98 48.4, 12.1 48.4 M12.1 48.4 C4.03 48.4, 0 44.37, 0 36.3 M0 36.3 C0 26.95, 0 17.6, 0 12.1 M0 12.1 C0 4.03, 4.03 0, 12.1 0"
            stroke="#5c940d" stroke-width="1.5" fill="none" stroke-dasharray="8 9"></path>
    </g>
    <g transform="translate(322.46784963795517 383.7222758834013) rotate(0 46.535972595214844 19.19999999999999)"><text
            x="46.535972595214844" y="0" font-family="Virgil, Segoe UI Emoji" font-size="16px" fill="#5c940d"
            text-anchor="middle" style="white-space: pre;" direction="ltr"
            dominant-baseline="text-before-edge">event.next()</text><text x="46.535972595214844" y="19.2"
            font-family="Virgil, Segoe UI Emoji" font-size="16px" fill="#5c940d" text-anchor="middle"
            style="white-space: pre;" direction="ltr" dominant-baseline="text-before-edge">(mpsc:rx)</text></g>
    <g transform="translate(303.17636836316547 236.08326553085675) rotate(0 28.319969177246094 9.600000000000023)"><text
            x="0" y="0" font-family="Virgil, Segoe UI Emoji" font-size="16px" fill="#5c940d" text-anchor="start"
            style="white-space: pre;" direction="ltr" dominant-baseline="text-before-edge">mpsc:tx</text></g>
    <g transform="translate(514.0240318776086 123.65190128787555) rotate(0 27.239967346191406 9.600000000000023)"><text
            x="0" y="0" font-family="Virgil, Segoe UI Emoji" font-size="16px" fill="#5c940d" text-anchor="start"
            style="white-space: pre;" direction="ltr" dominant-baseline="text-before-edge">mpsc:rx</text></g>
    <g stroke-linecap="round">
        <g transform="translate(532.268956675281 152.6105963180235) rotate(0 -83.39957247335036 43.42736249918977)">
            <path d="M0 0 C-27.8 14.48, -139 72.38, -166.8 86.85" stroke="#5c940d" stroke-width="1.5" fill="none"
                stroke-dasharray="8 9"></path>
        </g>
        <g transform="translate(532.268956675281 152.6105963180235) rotate(0 -83.39957247335036 43.42736249918977)">
            <path d="M-146.53 64.73 C-152.77 71.54, -159.01 78.35, -166.8 86.85" stroke="#5c940d" stroke-width="1.5"
                fill="none"></path>
        </g>
        <g transform="translate(532.268956675281 152.6105963180235) rotate(0 -83.39957247335036 43.42736249918977)">
            <path d="M-137.06 82.94 C-146.21 84.14, -155.37 85.35, -166.8 86.85" stroke="#5c940d" stroke-width="1.5"
                fill="none"></path>
        </g>
    </g>
    <mask></mask>
    <g transform="translate(23.876833954935137 162.04471705261818) rotate(0 34.79998016357422 9.600000000000023)"><text
            x="0" y="0" font-family="Virgil, Segoe UI Emoji" font-size="16px" fill="#000000" text-anchor="start"
            style="white-space: pre;" direction="ltr" dominant-baseline="text-before-edge">main loop</text></g>
    <g stroke-linecap="round"
        transform="translate(36.38044799245574 577.4611484591167) rotate(0 12.268247314038945 11.262589495526527)">
        <path
            d="M0.46 3.05 C0.46 3.05, 0.46 3.05, 0.46 3.05 M0.46 3.05 C0.46 3.05, 0.46 3.05, 0.46 3.05 M0.2 9.44 C2.71 6.55, 5.23 3.65, 7.41 1.14 M0.2 9.44 C1.7 7.71, 3.21 5.98, 7.41 1.14 M-0.07 15.84 C4.36 10.75, 8.79 5.66, 12.4 1.5 M-0.07 15.84 C3.76 11.44, 7.59 7.03, 12.4 1.5 M2.3 19.22 C6.36 14.55, 10.42 9.88, 18.7 0.35 M2.3 19.22 C7.86 12.82, 13.42 6.42, 18.7 0.35 M4 23.36 C8.14 18.6, 12.28 13.84, 23.03 1.47 M4 23.36 C8.64 18.03, 13.27 12.7, 23.03 1.47 M8.33 24.47 C12.78 19.36, 17.22 14.25, 24.74 5.6 M8.33 24.47 C14.57 17.29, 20.81 10.12, 24.74 5.6 M13.32 24.83 C17.58 19.93, 21.84 15.03, 24.47 12 M13.32 24.83 C16.98 20.62, 20.63 16.42, 24.47 12 M19.62 23.68 C21.44 21.59, 23.25 19.5, 24.87 17.64 M19.62 23.68 C21.61 21.39, 23.6 19.11, 24.87 17.64"
            stroke="#fab005" stroke-width="0.5" fill="none"></path>
        <path
            d="M5.63 0 M5.63 0 C10.06 0, 14.48 0, 18.91 0 M5.63 0 C10.12 0, 14.6 0, 18.91 0 M18.91 0 C22.66 0, 24.54 1.88, 24.54 5.63 M18.91 0 C22.66 0, 24.54 1.88, 24.54 5.63 M24.54 5.63 C24.54 9.18, 24.54 12.72, 24.54 16.89 M24.54 5.63 C24.54 8.64, 24.54 11.65, 24.54 16.89 M24.54 16.89 C24.54 20.65, 22.66 22.53, 18.91 22.53 M24.54 16.89 C24.54 20.65, 22.66 22.53, 18.91 22.53 M18.91 22.53 C14.13 22.53, 9.35 22.53, 5.63 22.53 M18.91 22.53 C14.11 22.53, 9.32 22.53, 5.63 22.53 M5.63 22.53 C1.88 22.53, 0 20.65, 0 16.89 M5.63 22.53 C1.88 22.53, 0 20.65, 0 16.89 M0 16.89 C0 14.27, 0 11.64, 0 5.63 M0 16.89 C0 14.16, 0 11.43, 0 5.63 M0 5.63 C0 1.88, 1.88 0, 5.63 0 M0 5.63 C0 1.88, 1.88 0, 5.63 0"
            stroke="#e67700" stroke-width="1" fill="none"></path>
    </g>
    <g transform="translate(74.31144888412518 580.1571672917248) rotate(0 11.759994506835938 9.600000000000023)"><text
            x="0" y="0" font-family="Virgil, Segoe UI Emoji" font-size="16px" fill="#e67700" text-anchor="start"
            style="white-space: pre;" direction="ltr" dominant-baseline="text-before-edge">init</text></g>
    <g stroke-linecap="round"
        transform="translate(212.47033133743048 578.2353299132135) rotate(0 12.268247314038945 11.262589495526527)">
        <path
            d="M0.46 3.05 C0.46 3.05, 0.46 3.05, 0.46 3.05 M0.46 3.05 C0.46 3.05, 0.46 3.05, 0.46 3.05 M0.2 9.44 C3.02 6.2, 5.84 2.95, 7.41 1.14 M0.2 9.44 C2.86 6.38, 5.53 3.31, 7.41 1.14 M-0.07 15.84 C3.59 11.64, 7.24 7.44, 12.4 1.5 M-0.07 15.84 C3.38 11.88, 6.82 7.92, 12.4 1.5 M2.3 19.22 C7.84 12.84, 13.39 6.46, 18.7 0.35 M2.3 19.22 C5.61 15.41, 8.93 11.59, 18.7 0.35 M4 23.36 C10.18 16.26, 16.35 9.16, 23.03 1.47 M4 23.36 C8.19 18.53, 12.38 13.71, 23.03 1.47 M8.33 24.47 C13.8 18.18, 19.27 11.89, 24.74 5.6 M8.33 24.47 C12.53 19.65, 16.72 14.83, 24.74 5.6 M13.32 24.83 C16.48 21.19, 19.65 17.55, 24.47 12 M13.32 24.83 C16.47 21.21, 19.62 17.58, 24.47 12 M19.62 23.68 C21.63 21.36, 23.65 19.05, 24.87 17.64 M19.62 23.68 C20.78 22.34, 21.95 21.01, 24.87 17.64"
            stroke="#82c91e" stroke-width="0.5" fill="none"></path>
        <path
            d="M5.63 0 M5.63 0 C9.42 0, 13.2 0, 18.91 0 M5.63 0 C10.09 0, 14.54 0, 18.91 0 M18.91 0 C22.66 0, 24.54 1.88, 24.54 5.63 M18.91 0 C22.66 0, 24.54 1.88, 24.54 5.63 M24.54 5.63 C24.54 9.72, 24.54 13.82, 24.54 16.89 M24.54 5.63 C24.54 9.91, 24.54 14.18, 24.54 16.89 M24.54 16.89 C24.54 20.65, 22.66 22.53, 18.91 22.53 M24.54 16.89 C24.54 20.65, 22.66 22.53, 18.91 22.53 M18.91 22.53 C15.69 22.53, 12.48 22.53, 5.63 22.53 M18.91 22.53 C13.92 22.53, 8.94 22.53, 5.63 22.53 M5.63 22.53 C1.88 22.53, 0 20.65, 0 16.89 M5.63 22.53 C1.88 22.53, 0 20.65, 0 16.89 M0 16.89 C0 12.51, 0 8.13, 0 5.63 M0 16.89 C0 14.11, 0 11.33, 0 5.63 M0 5.63 C0 1.88, 1.88 0, 5.63 0 M0 5.63 C0 1.88, 1.88 0, 5.63 0"
            stroke="#5c940d" stroke-width="1" fill="none"></path>
    </g>
    <g transform="translate(250.12900709449298 580.9196776686242) rotate(0 50.24797058105469 9.600000000000023)"><text
            x="0" y="0" font-family="Virgil, Segoe UI Emoji" font-size="16px" fill="#5c940d" text-anchor="start"
            style="white-space: pre;" direction="ltr" dominant-baseline="text-before-edge">sending data</text></g>
    <g stroke-linecap="round"
        transform="translate(433.26515398895776 578.4492996618333) rotate(0 12.268247314038945 11.262589495526527)">
        <path
            d="M0.46 3.05 C0.46 3.05, 0.46 3.05, 0.46 3.05 M0.46 3.05 C0.46 3.05, 0.46 3.05, 0.46 3.05 M0.2 9.44 C2.06 7.3, 3.92 5.16, 7.41 1.14 M0.2 9.44 C2.23 7.11, 4.26 4.77, 7.41 1.14 M-0.07 15.84 C4.53 10.56, 9.12 5.28, 12.4 1.5 M-0.07 15.84 C2.72 12.64, 5.5 9.44, 12.4 1.5 M2.3 19.22 C8.59 11.99, 14.88 4.75, 18.7 0.35 M2.3 19.22 C6.75 14.1, 11.2 8.98, 18.7 0.35 M4 23.36 C8.1 18.64, 12.2 13.93, 23.03 1.47 M4 23.36 C10.85 15.48, 17.7 7.6, 23.03 1.47 M8.33 24.47 C13.42 18.62, 18.5 12.77, 24.74 5.6 M8.33 24.47 C12.02 20.23, 15.71 15.98, 24.74 5.6 M13.32 24.83 C17.78 19.7, 22.24 14.57, 24.47 12 M13.32 24.83 C15.57 22.24, 17.83 19.65, 24.47 12 M19.62 23.68 C21.5 21.52, 23.37 19.36, 24.87 17.64 M19.62 23.68 C21.31 21.74, 23 19.79, 24.87 17.64"
            stroke="#868e96" stroke-width="0.5" fill="none"></path>
        <path
            d="M5.63 0 M5.63 0 C10.26 0, 14.89 0, 18.91 0 M5.63 0 C9.74 0, 13.85 0, 18.91 0 M18.91 0 C22.66 0, 24.54 1.88, 24.54 5.63 M18.91 0 C22.66 0, 24.54 1.88, 24.54 5.63 M24.54 5.63 C24.54 9.63, 24.54 13.62, 24.54 16.89 M24.54 5.63 C24.54 8.56, 24.54 11.48, 24.54 16.89 M24.54 16.89 C24.54 20.65, 22.66 22.53, 18.91 22.53 M24.54 16.89 C24.54 20.65, 22.66 22.53, 18.91 22.53 M18.91 22.53 C13.84 22.53, 8.78 22.53, 5.63 22.53 M18.91 22.53 C14.12 22.53, 9.34 22.53, 5.63 22.53 M5.63 22.53 C1.88 22.53, 0 20.65, 0 16.89 M5.63 22.53 C1.88 22.53, 0 20.65, 0 16.89 M0 16.89 C0 13.33, 0 9.76, 0 5.63 M0 16.89 C0 12.51, 0 8.14, 0 5.63 M0 5.63 C0 1.88, 1.88 0, 5.63 0 M0 5.63 C0 1.88, 1.88 0, 5.63 0"
            stroke="#000000" stroke-width="1" fill="none"></path>
    </g>
    <g transform="translate(472.27563663436626 580.9794392290357) rotate(0 30.423980712890625 9.600000000000023)"><text
            x="0" y="0" font-family="Virgil, Segoe UI Emoji" font-size="16px" fill="#000000" text-anchor="start"
            style="white-space: pre;" direction="ltr" dominant-baseline="text-before-edge">operate</text></g>
    <g stroke-linecap="round">
        <g transform="translate(874.5027706868974 63.3467748973041) rotate(0 -40.74287748496954 145.8049062009848)">
            <path
                d="M1.02 0.77 C-17.53 59.47, -33.53 115.98, -82.51 291.21 M-0.07 0.4 C-20.93 81.13, -43.19 163.28, -81.74 290.77"
                stroke="#000000" stroke-width="1" fill="none"></path>
        </g>
        <g transform="translate(874.5027706868974 63.3467748973041) rotate(0 -40.74287748496954 145.8049062009848)">
            <path
                d="M-82.18 261.88 C-82.58 268.33, -81.5 271.02, -83.19 291.22 M-83.67 261.38 C-82.56 268.54, -81.43 278.32, -82.15 290.62"
                stroke="#000000" stroke-width="1" fill="none"></path>
        </g>
        <g transform="translate(874.5027706868974 63.3467748973041) rotate(0 -40.74287748496954 145.8049062009848)">
            <path
                d="M-62.5 267.7 C-66.85 272.79, -69.76 274.3, -83.19 291.22 M-63.99 267.2 C-68.42 272.89, -72.77 281.05, -82.15 290.62"
                stroke="#000000" stroke-width="1" fill="none"></path>
        </g>
    </g>
    <mask></mask>
    <g transform="translate(820.967640398599 250.45062459969284) rotate(0 39.50397491455078 9.600000000000023)"><text
            x="0" y="0" font-family="Virgil, Segoe UI Emoji" font-size="16px" fill="#000000" text-anchor="start"
            style="white-space: pre;" direction="ltr" dominant-baseline="text-before-edge">send input</text></g>
    <g stroke-linecap="round" transform="translate(806.1508836733161 10) rotate(0 66 26)">
        <path
            d="M73.94 -0.32 C84.19 0.02, 96.81 2.93, 105.83 5.57 C114.84 8.21, 123.9 11.42, 128.03 15.53 C132.17 19.64, 132.15 25.77, 130.63 30.24 C129.11 34.72, 125.53 39.11, 118.92 42.36 C112.31 45.61, 101.3 48.2, 90.95 49.75 C80.59 51.29, 67.64 52.01, 56.78 51.63 C45.92 51.26, 34.52 50.03, 25.79 47.51 C17.06 45, 8.52 40.55, 4.41 36.53 C0.3 32.51, -0.33 27.67, 1.13 23.39 C2.59 19.12, 6.45 14.59, 13.17 10.88 C19.9 7.18, 30.65 2.93, 41.47 1.18 C52.28 -0.57, 71.87 0.38, 78.06 0.38 C84.25 0.37, 78.79 0.56, 78.61 1.15 M52.38 2.05 C62.05 0.4, 75.28 -1.25, 85.47 0 C95.67 1.25, 106.27 6.36, 113.56 9.56 C120.84 12.75, 126.42 15.2, 129.18 19.16 C131.95 23.13, 133.5 29.22, 130.15 33.35 C126.8 37.48, 117.58 41.02, 109.1 43.92 C100.63 46.81, 89.69 49.57, 79.3 50.72 C68.9 51.87, 57.3 51.98, 46.71 50.82 C36.12 49.65, 23.17 46.91, 15.78 43.72 C8.39 40.54, 4.4 35.99, 2.38 31.73 C0.36 27.46, 0.5 22.3, 3.66 18.15 C6.83 14.01, 13.34 9.87, 21.38 6.87 C29.42 3.86, 46.95 1.11, 51.92 0.12 C56.89 -0.87, 51.09 0.31, 51.19 0.92"
            stroke="#000000" stroke-width="1" fill="none"></path>
    </g>
    <g transform="translate(854.1098497258439 26.515223689149764) rotate(0 17.871986389160156 9.599999999999994)"><text
            x="17.871986389160156" y="0" font-family="Virgil, Segoe UI Emoji" font-size="16px" fill="#000000"
            text-anchor="middle" style="white-space: pre;" direction="ltr"
            dominant-baseline="text-before-edge">User</text></g>
</svg>